<svg width="989" height="143" viewBox="0 0 989 143" fill="none" xmlns="http://www.w3.org/2000/svg">
<path d="M0 130.069C0.97404 134.227 2.07045 138.543 3.27116 143H989V47.7178C957.136 34.0565 858.052 10.0822 688.291 13.2926C576.702 15.4029 437.87 30.6375 312.03 44.4464C190.004 57.8368 80.1957 69.8866 19.2919 67.3286C10.0752 66.9416 3.84257 69.6522 0 74.9506V130.069Z" fill="#FBF8F5"/>
<path d="M0 143H989V99.7178C957.136 86.0565 858.052 62.0822 688.291 65.2926C576.702 67.4029 437.87 82.6375 312.03 96.4464C190.004 109.837 80.1957 121.887 19.2919 119.329C10.0753 118.942 3.84256 121.652 0 126.951V143Z" fill="#F6F1EB"/>
</svg>
